<?xml version="1.0" encoding="utf-8"?>
<svg viewBox="10.65 10.35 42.6 44" xmlns="http://www.w3.org/2000/svg">
  <path d="M 46.841 28.052 C 50.743 29.178 54.646 24.075 52.619 16.945 C 50.593 9.816 43.163 10.791 41.888 11.692 C 41.888 11.692 34.534 8.615 30.219 12.03 C 30.219 12.03 21.555 7.644 19.387 18.901 C 19.387 18.901 16.823 29.478 25.716 27.564 C 30.894 25.65 23.915 20.135 27.067 16.082 C 27.067 16.082 27.968 21.823 30.219 23.737 C 30.219 23.737 27.067 27.339 31.232 29.703 C 31.232 29.703 29.656 35.444 23.24 38.596 C 16.824 41.748 19.074 47.827 18.737 48.84 C 18.737 48.84 10.52 52.555 10.858 44.112 C 10.858 44.112 8.719 55.144 20.201 53.005 C 20.201 53.005 19.931 54.018 20.966 54.131 C 22.002 54.244 34.384 54.131 34.384 54.131 C 34.384 54.131 38.324 53.568 34.384 49.741 C 34.384 49.741 36.467 48.165 36.41 47.264 L 36.411 53.793 C 36.411 53.793 41.25 54.3 42.094 53.737 C 42.938 53.174 42.995 51.486 41.081 51.035 C 39.167 50.584 42.904 32.929 40.277 30.302 C 40.277 30.302 43.613 28.202 42.112 24.3 C 42.112 24.3 45.264 20.548 44.288 14.919 C 47.817 19.497 41.964 25.651 46.841 28.052 Z" fill="#8B4513"/>
</svg>